<?xml version="1.0" standalone="no"?>
<!DOCTYPE svg PUBLIC "-//W3C//DTD SVG 20010904//EN"
 "http://www.w3.org/TR/2001/REC-SVG-20010904/DTD/svg10.dtd">
<svg version="1.0" xmlns="http://www.w3.org/2000/svg"
 width="292.000000pt" height="292.000000pt" viewBox="0 0 292.000000 292.000000"
 preserveAspectRatio="xMidYMid meet">
<metadata>
Created by potrace 1.11, written by Peter Selinger 2001-2013
</metadata>
<g transform="translate(0.000000,292.000000) scale(0.100000,-0.100000)"
fill="#000000" stroke="none">
<path d="M1371 2795 c-13 -49 -34 -127 -36 -140 -2 -5 -19 -77 -40 -160 -20
-82 -38 -157 -40 -165 -8 -38 -148 -595 -150 -598 -2 -2 -15 -5 -30 -8 -15 -3
-55 -11 -89 -19 -33 -8 -77 -17 -96 -20 -19 -3 -42 -8 -50 -10 -8 -2 -31 -7
-50 -10 -19 -3 -51 -10 -70 -15 -19 -5 -46 -11 -60 -14 -25 -4 -128 -26 -440
-92 -96 -20 -181 -37 -187 -37 -30 -1 -7 -17 90 -62 56 -27 163 -77 237 -113
269 -128 367 -175 468 -223 92 -44 102 -51 97 -71 -3 -13 -19 -81 -36 -153
-17 -71 -33 -139 -35 -150 -9 -48 -13 -64 -32 -140 -26 -107 -52 -219 -58
-252 -3 -15 -7 -30 -9 -33 -2 -4 -7 -22 -10 -41 -3 -19 -15 -70 -25 -114 -11
-43 -18 -80 -17 -81 1 -2 65 52 142 118 77 66 151 130 165 142 119 101 190
162 215 185 17 15 62 53 100 86 39 32 72 61 75 64 3 3 31 28 63 55 l58 48 449
-200 c248 -110 450 -197 450 -193 0 5 -169 418 -200 489 -50 113 -160 386
-160 396 0 6 80 88 177 181 97 94 233 224 301 290 69 66 180 173 246 237 l121
117 -90 -20 c-49 -11 -164 -35 -255 -54 -91 -19 -218 -46 -283 -59 -136 -30
-118 -26 -307 -66 -80 -17 -153 -33 -163 -36 -13 -4 -21 3 -31 28 -8 18 -95
229 -194 468 -100 239 -185 446 -190 460 -9 24 -10 24 -21 -15z"/>
</g>
</svg>
